0
SECTION
2
HEADER
9
$INSUNITS
70
4
9
$ACADVER
1
AC1014
9
$HANDSEED
5
FFFF
0
ENDSEC
0
SECTION
2
TABLES
0
TABLE
2
VPORT
5
8
100
AcDbSymbolTable
0
ENDTAB
0
TABLE
2
LTYPE
5
5
100
AcDbSymbolTable
0
LTYPE
5
14
100
AcDbSymbolTableRecord
100
AcDbLinetypeTableRecord
2
BYBLOCK
70
0
0
LTYPE
5
15
100
AcDbSymbolTableRecord
100
AcDbLinetypeTableRecord
2
BYLAYER
70
0
0
ENDTAB
0
TABLE
2
LAYER
5
2
100
AcDbSymbolTable
70
2
0
LAYER
5
50
100
AcDbSymbolTableRecord
100
AcDbLayerTableRecord
2
0
70
0
6
CONTINUOUS
0
ENDTAB
0
TABLE
2
STYLE
5
3
100
AcDbSymbolTable
70
1
0
STYLE
5
11
100
AcDbSymbolTableRecord
100
AcDbTextStyleTableRecord
2
STANDARD
70
0
0
ENDTAB
0
TABLE
2
VIEW
5
6
100
AcDbSymbolTable
70
0
0
ENDTAB
0
TABLE
2
UCS
5
7
100
AcDbSymbolTable
70
0
0
ENDTAB
0
TABLE
2
APPID
5
9
100
AcDbSymbolTable
70
2
0
APPID
5
12
100
AcDbSymbolTableRecord
100
AcDbRegAppTableRecord
2
ACAD
70
0
0
ENDTAB
0
TABLE
2
DIMSTYLE
5
A
100
AcDbSymbolTable
70
1
0
ENDTAB
0
TABLE
2
BLOCK_RECORD
5
1
100
AcDbSymbolTable
70
1
0
BLOCK_RECORD
5
1F
100
AcDbSymbolTableRecord
100
AcDbBlockTableRecord
2
*MODEL_SPACE
0
BLOCK_RECORD
5
1B
100
AcDbSymbolTableRecord
100
AcDbBlockTableRecord
2
*PAPER_SPACE
0
ENDTAB
0
ENDSEC
0
SECTION
2
BLOCKS
0
BLOCK
5
20
100
AcDbEntity
100
AcDbBlockBegin
2
*MODEL_SPACE
0
ENDBLK
5
21
100
AcDbEntity
100
AcDbBlockEnd
0
BLOCK
5
1C
100
AcDbEntity
100
AcDbBlockBegin
2
*PAPER_SPACE
0
ENDBLK
5
1D
100
AcDbEntity
100
AcDbBlockEnd
0
ENDSEC
0
SECTION
2
ENTITIES
0
SPLINE
5
100
100
AcDbEntity
8
0
100
AcDbSpline
70
12
71
2
41
1
41
3.000000000000016
41
1
72
6
73
3
74
0
42
0.000000001
43
0.0000000001
44
0.0000000001
40
0
40
0
40
0
40
3.4688325616610265
40
3.4688325616610265
40
3.4688325616610265
10
102.21510813723486
20
155.38840418630764
30
0
10
118.58416887836231
20
164.38825335351183
30
0
10
125
20
180
30
0
0
LINE
5
101
100
AcDbEntity
8
0
100
AcDbLine
10
112.00000166893005
20
243.00000362098217
30
0
11
112.08929935551706
21
241.65783750077247
31
0
0
ARC
5
102
100
AcDbEntity
8
0
100
AcDbCircle
10
99.999967500693216
20
-253.97855551797676
30
0
40
252.74999999999804
210
0
220
-0
230
1
100
AcDbArc
50
89.487053819445535
51
90.512931149787462
0
LINE
5
103
100
AcDbEntity
8
0
100
AcDbLine
10
65.579074224345135
20
186.10854550080009
30
0
11
72.000001072883606
21
210.00000312924385
31
0
0
SPLINE
5
104
100
AcDbEntity
8
0
100
AcDbSpline
70
12
71
2
41
1
41
2.9999999999999893
41
1
72
6
73
3
74
0
42
0.000000001
43
0.0000000001
44
0.0000000001
40
0
40
0
40
0
40
3.6105821263916127
40
3.6105821263916127
40
3.6105821263916127
10
98.63794099574946
20
184.35756239356706
30
0
10
80
20
195
30
0
10
77.415052672238602
20
210.98774884856422
30
0
0
LINE
5
105
100
AcDbEntity
8
0
100
AcDbLine
10
122.43872518246397
20
224.97965070617286
30
0
11
122.16802330133891
21
222.59384179254212
31
0
0
LINE
5
106
100
AcDbEntity
8
0
100
AcDbLine
10
100
20
260
30
0
11
112.40595006038984
21
242.29437436927776
31
0
0
SPLINE
5
107
100
AcDbEntity
8
0
100
AcDbSpline
70
12
71
2
41
1
41
2.9999999999999858
41
1
72
6
73
3
74
0
42
0.000000001
43
0.0000000001
44
0.0000000001
40
0
40
0
40
0
40
3.0600675761556855
40
3.0600675761556855
40
3.0600675761556855
10
98.261855006950782
20
125.53449381469048
30
0
10
88.554787044004698
20
133.64872068922153
30
0
10
80.133278191993256
20
149.78802274186049
30
0
0
SPLINE
5
108
100
AcDbEntity
8
0
100
AcDbSpline
70
12
71
2
41
1
41
3.0000000000000142
41
1
72
6
73
3
74
0
42
0.000000001
43
0.0000000001
44
0.0000000001
40
0
40
0
40
0
40
3.3462524932221784
40
3.3462524932221784
40
3.3462524932221784
10
119.31161411845338
20
95.710209633232637
30
0
10
140
20
95
30
0
10
149.77135291090815
20
105.03849002506733
30
0
0
LINE
5
109
100
AcDbEntity
8
0
100
AcDbLine
10
176.86894975152484
20
99.452510231268789
30
0
11
190
21
125
31
0
0
SPLINE
5
110
100
AcDbEntity
8
0
100
AcDbSpline
70
12
71
2
41
1
41
3.0000000000000213
41
1
72
6
73
3
74
0
42
0.000000001
43
0.0000000001
44
0.0000000001
40
0
40
0
40
0
40
2.9961198438789234
40
2.9961198438789234
40
2.9961198438789234
10
53.33641945290789
20
136.21682451700525
30
0
10
53.527246032837603
20
150.20206660611578
30
0
10
46.801179545595978
20
165.03855281653361
30
0
0
LINE
5
111
100
AcDbEntity
8
0
100
AcDbLine
10
46.000000685453415
20
173.00000257790089
30
0
11
34.833123273772124
21
180.90914179814803
31
0
0
LINE
5
112
100
AcDbEntity
8
0
100
AcDbLine
10
88.200322039725762
20
242.29437436927776
30
0
11
100
21
260
31
0
0
LINE
5
113
100
AcDbEntity
8
0
100
AcDbLine
10
45.000000670552254
20
175.00000260770321
30
0
11
46.000000685453415
21
173.00000257790089
31
0
0
SPLINE
5
114
100
AcDbEntity
8
0
100
AcDbSpline
70
12
71
2
41
1
41
2.9999999999999822
41
1
72
6
73
3
74
0
42
0.000000001
43
0.0000000001
44
0.0000000001
40
0
40
0
40
0
40
3.1264457415284275
40
3.1264457415284275
40
3.1264457415284275
10
98.681435768254033
20
189.781912465554
30
0
10
84.580697827355053
20
195.66816390526651
30
0
10
77.415052672238602
20
210.98774884856422
30
0
0
LINE
5
115
100
AcDbEntity
8
0
100
AcDbLine
10
195.12201715999427
20
170.58278931519166
30
0
11
198.51477787611057
21
190.036277275754
31
0
0
LINE
5
116
100
AcDbEntity
8
0
100
AcDbLine
10
197.00000293552876
20
173.00000257790089
30
0
11
195.12201715999427
21
170.58278931519166
31
0
0
LINE
5
117
100
AcDbEntity
8
0
100
AcDbLine
10
1.6383703585411946
20
183.93377934382806
30
0
11
0.1762946477203936
21
200.00020744710082
31
0
0
SPLINE
5
118
100
AcDbEntity
8
0
100
AcDbSpline
70
12
71
2
41
1
41
3.0000000000000107
41
1
72
6
73
3
74
0
42
0.000000001
43
0.0000000001
44
0.0000000001
40
0
40
0
40
0
40
3.3563951733391999
40
3.3563951733391999
40
3.3563951733391999
10
101.82464882696985
20
184.87228695031547
30
0
10
118.86384887523795
20
193.87269953507797
30
0
10
120
20
210
30
0
0
LINE
5
119
100
AcDbEntity
8
0
100
AcDbLine
10
140
20
165
30
0
11
152.0000022649765
21
174.00000259280205
31
0
0
SPLINE
5
120
100
AcDbEntity
8
0
100
AcDbSpline
70
4
71
5
72
17
73
11
74
0
42
0.000000001
43
0.0000000001
44
0.0000000001
40
0.41402090924258617
40
0.41402090924258617
40
0.41402090924258617
40
0.41402090924258617
40
0.41402090924258617
40
0.41402090924258617
40
0.5
40
0.59999999999999998
40
0.69999999999999996
40
0.79999999999999993
40
0.89999999999999991
40
0.95563097910575656
40
0.95563097910575656
40
0.95563097910575656
40
0.95563097910575656
40
0.95563097910575656
40
0.95563097910575656
41
1
41
1
41
1
41
1
41
1
41
1
41
1
41
1
41
1
41
1
41
1
10
176.86894975152484
20
99.452510231268789
30
0
10
175.51357136182165
20
96.532880897495218
30
0
10
172.46358086117894
20
90.537940712783183
30
0
10
167.36843482408557
20
82.417930396819642
30
0
10
159.59861483706752
20
73.879326199796139
30
0
10
148.20963997608044
20
67.482393605926575
30
0
10
136.00522283136658
20
65.623331443138952
30
0
10
125.47818231086143
20
66.886301479187836
30
0
10
117.41754544234328
20
69.13243715372036
30
0
10
112.33012870597939
20
70.987878277540261
30
0
10
110.4886946881899
20
71.713229678531235
30
0
0
SPLINE
5
121
100
AcDbEntity
8
0
100
AcDbSpline
70
12
71
2
41
1
41
2.9999999999999947
41
1
72
6
73
3
74
0
42
0.000000001
43
0.0000000001
44
0.0000000001
40
0
40
0
40
0
40
3.9126986143246754
40
3.9126986143246754
40
3.9126986143246754
10
80.412312067812621
20
103.12086152638295
30
0
10
81.171222432673034
20
125.35931631275362
30
0
10
73.626578872095138
20
141.00746591987811
30
0
0
LINE
5
122
100
AcDbEntity
8
0
100
AcDbLine
10
5
20
150
30
0
11
7.0566627896767686
21
147.96824764061438
31
0
0
SPLINE
5
123
100
AcDbEntity
8
0
100
AcDbSpline
70
12
71
2
41
1
41
2.9999999999999609
41
1
72
6
73
3
74
0
42
0.000000001
43
0.0000000001
44
0.0000000001
40
0
40
0
40
0
40
2.8684005055244057
40
2.8684005055244057
40
2.8684005055244057
10
143.90447401739868
20
131.98381945510428
30
0
10
140.50982799989802
20
137.59338114016643
30
0
10
145
20
160
30
0
0
SPLINE
5
124
100
AcDbEntity
8
0
100
AcDbSpline
70
12
71
2
41
1
41
2.9999999999999858
41
1
72
6
73
3
74
0
42
0.000000001
43
0.0000000001
44
0.0000000001
40
0
40
0
40
0
40
3.5741866551336736
40
3.5741866551336736
40
3.5741866551336736
10
50.458261035202852
20
134.41912179465447
30
0
10
31.244880917973624
20
133.96699595591576
30
0
10
16.622605303284416
20
142.96348462076867
30
0
0
LINE
5
125
100
AcDbEntity
8
0
100
AcDbLine
10
21.210829615470303
20
100.09720349541186
30
0
11
10
21
125
31
0
0
SPLINE
5
126
100
AcDbEntity
8
0
100
AcDbSpline
70
12
71
2
41
1
41
3.0000000000000018
41
1
72
6
73
3
74
0
42
0.000000001
43
0.0000000001
44
0.0000000001
40
0
40
0
40
0
40
3.565001854663806
40
3.565001854663806
40
3.565001854663806
10
56.912926415851821
20
131.852623486407
30
0
10
56.860704293033166
20
150.78755942433094
30
0
10
46.801179545595978
20
165.03855281653361
30
0
0
SPLINE
5
127
100
AcDbEntity
8
0
100
AcDbSpline
70
12
71
2
41
1
41
3.0000000000000391
41
1
72
6
73
3
74
0
42
0.000000001
43
0.0000000001
44
0.0000000001
40
0
40
0
40
0
40
3.4757852593993164
40
3.4757852593993164
40
3.4757852593993164
10
98.435110489719975
20
155.4664779743251
30
0
10
84.755177723876159
20
162.53936833284769
30
0
10
75
20
180
30
0
0
SPLINE
5
128
100
AcDbEntity
8
0
100
AcDbSpline
70
4
71
5
72
21
73
15
74
0
42
0.000000001
43
0.0000000001
44
0.0000000001
40
0
40
0
40
0
40
0
40
0
40
0
40
0.10000000000000001
40
0.20000000000000001
40
0.30000000000000004
40
0.40000000000000002
40
0.5
40
0.59999999999999998
40
0.69999999999999996
40
0.79999999999999993
40
0.89999999999999991
40
1
40
1
40
1
40
1
40
1
40
1
41
1
41
1
41
1
41
1
41
1
41
1
41
1
41
1
41
1
41
1
41
1
41
1
41
1
41
1
41
1
10
103.05646676022454
20
81.505330181480119
30
0
10
110.42965103447544
20
90.632889818798205
30
0
10
124.529681229139
20
108.07647576726004
30
0
10
143.74075839455321
20
131.80731364227054
30
0
10
165.41338676377794
20
158.49873390664445
30
0
10
185.49015757926045
20
183.05631131839763
30
0
10
197.93441350706371
20
198.03061062655507
30
0
10
202.1362797006168
20
202.65588157068746
30
0
10
197.78670307602371
20
196.54408145513599
30
0
10
185.25233730490126
20
180.15557546156811
30
0
10
165.16255779850709
20
154.28059848456607
30
0
10
143.54822105156649
20
126.62151553042824
30
0
10
124.41883024376546
20
102.21260227283526
30
0
10
110.38992534739373
20
84.337893831835075
30
0
10
103.05646676022454
20
75
30
0
0
SPLINE
5
129
100
AcDbEntity
8
0
100
AcDbSpline
70
12
71
2
41
1
41
3
41
1
72
6
73
3
74
0
42
0.000000001
43
0.0000000001
44
0.0000000001
40
0
40
0
40
0
40
2.9145787016824967
40
2.9145787016824967
40
2.9145787016824967
10
28.479921948204151
20
162.49521657480759
30
0
10
13.548861630456406
20
164.20025908758052
30
0
10
5.1659243409253985
20
177.05409626486136
30
0
0
SPLINE
5
130
100
AcDbEntity
8
0
100
AcDbSpline
70
4
71
5
72
20
73
14
74
0
42
0.000000001
43
0.0000000001
44
0.0000000001
40
0.10235358327071922
40
0.10235358327071922
40
0.10235358327071922
40
0.10235358327071922
40
0.10235358327071922
40
0.10235358327071922
40
0.20000000000000001
40
0.30000000000000004
40
0.40000000000000002
40
0.5
40
0.59999999999999998
40
0.69999999999999996
40
0.79999999999999993
40
0.89999999999999991
40
0.94060715467208289
40
0.94060715467208289
40
0.94060715467208289
40
0.94060715467208289
40
0.94060715467208289
40
0.94060715467208289
41
1
41
1
41
1
41
1
41
1
41
1
41
1
41
1
41
1
41
1
41
1
41
1
41
1
41
1
10
102.26270685769055
20
-1.2386842855130658
30
0
10
102.64333918480973
20
-1.2420920254227021
30
0
10
103.36412040914858
20
-1.0226143735146289
30
0
10
104.2972536490732
20
0.0023363112385528777
30
0
10
105.23448285544723
20
2.7821368746621467
30
0
10
105.92521026402312
20
8.4591873381158038
30
0
10
106.19049829053439
20
16.117429622408029
30
0
10
106.09127783494097
20
25.437356714550255
30
0
10
105.68692669862683
20
36.148283032876883
30
0
10
105.10400347562204
20
46.619920644266308
30
0
10
104.52367380546067
20
55.306212865570508
30
0
10
104.05329491200638
20
61.717750323215341
30
0
10
103.75819343653737
20
65.556728459353934
30
0
10
103.67128948322041
20
66.673074396004097
30
0
0
LINE
5
131
100
AcDbEntity
8
0
100
AcDbLine
10
184.50005276001545
20
119.86356649225458
30
0
11
194.43894825139921
21
150.58037603778601
31
0
0
SPLINE
5
132
100
AcDbEntity
8
0
100
AcDbSpline
70
12
71
2
41
1
41
3.0000000000000284
41
1
72
6
73
3
74
0
42
0.000000001
43
0.0000000001
44
0.0000000001
40
0
40
0
40
0
40
3.653306149145485
40
3.653306149145485
40
3.653306149145485
10
98.22850196827801
20
119.14567083728564
30
0
10
83.448828143147225
20
133.37601198910434
30
0
10
80.133278191993256
20
149.78802274186049
30
0
0
SPLINE
5
133
100
AcDbEntity
8
0
100
AcDbSpline
70
4
71
5
72
20
73
14
74
0
42
0.000000001
43
0.0000000001
44
0.0000000001
40
0.10235358135930249
40
0.10235358135930249
40
0.10235358135930249
40
0.10235358135930249
40
0.10235358135930249
40
0.10235358135930249
40
0.20000000000000001
40
0.30000000000000004
40
0.40000000000000002
40
0.5
40
0.59999999999999998
40
0.69999999999999996
40
0.79999999999999993
40
0.89999999999999991
40
0.94079960055929424
40
0.94079960055929424
40
0.94079960055929424
40
0.94079960055929424
40
0.94079960055929424
40
0.94079960055929424
41
1
41
1
41
1
41
1
41
1
41
1
41
1
41
1
41
1
41
1
41
1
41
1
41
1
41
1
10
97.737294446557314
20
-1.238683691924944
30
0
10
97.35666232950409
20
-1.2420913300922398
30
0
10
96.635881517651242
20
-1.0226134686257722
30
0
10
95.702748837509418
20
0.0023375299816566475
30
0
10
94.765520242522655
20
2.782138479090881
30
0
10
94.074793363154669
20
8.4591892760743121
30
0
10
93.809505647540306
20
16.117431686042202
30
0
10
93.908726216388658
20
25.437358709712509
30
0
10
94.313077296053706
20
36.148284776814968
30
0
10
94.89625494601087
20
46.624495760765832
30
0
10
95.476985620743577
20
55.316029708806489
30
0
10
95.947837296611567
20
61.733136049188502
30
0
10
96.243425682682869
20
65.577747289703126
30
0
10
96.330773435695562
20
66.699529552504927
30
0
0
SPLINE
5
134
100
AcDbEntity
8
0
100
AcDbSpline
70
12
71
2
41
1
41
2.9999999999999432
41
1
72
6
73
3
74
0
42
0.000000001
43
0.0000000001
44
0.0000000001
40
0
40
0
40
0
40
2.15626502423508
40
2.15626502423508
40
2.15626502423508
10
119.26242690469854
20
101.55536430189132
30
0
10
114.65414112271699
20
109.89971152289145
30
0
10
114.65414112271699
20
122.22800477532235
30
0
0
SPLINE
5
135
100
AcDbEntity
8
0
100
AcDbSpline
70
4
71
5
72
12
73
6
74
0
42
0.000000001
43
0.0000000001
44
0.0000000001
40
0.99999752457290847
40
0.99999752457290847
40
0.99999752457290847
40
0.99999752457290847
40
0.99999752457290847
40
0.99999752457290847
40
1
40
1
40
1
40
1
40
1
40
1
41
1
41
1
41
1
41
1
41
1
41
1
10
99.999987622864538
20
76.08379402992017
30
0
10
99.999990098291647
20
76.083787140192456
30
0
10
99.999992573718714
20
76.083780250464756
30
0
10
99.999995049145809
20
76.083773360737041
30
0
10
99.999997524572905
20
76.083766471009341
30
0
10
100
20
76.08375958128164
30
0
0
SPLINE
5
136
100
AcDbEntity
8
0
100
AcDbSpline
70
4
71
5
72
13
73
7
74
0
42
0.000000001
43
0.0000000001
44
0.0000000001
40
0.27500001527591594
40
0.27500001527591594
40
0.27500001527591594
40
0.27500001527591594
40
0.27500001527591594
40
0.27500001527591594
40
0.30000000000000004
40
0.30145132546631098
40
0.30145132546631098
40
0.30145132546631098
40
0.30145132546631098
40
0.30145132546631098
40
0.30145132546631098
41
1
41
1
41
1
41
1
41
1
41
1
41
1
10
82.000001221975225
20
231.74062376905215
30
0
10
82.400000977561547
20
232.53468969465058
30
0
10
82.823221940609017
20
233.35329024943269
30
0
10
83.246442903656572
20
234.14891810116296
30
0
10
83.669663866704241
20
234.92140510143139
30
0
10
84.092884829751995
20
235.67058321857712
30
0
10
84.116106037213058
20
235.71161878269336
30
0
0
LINE
5
137
100
AcDbEntity
8
0
100
AcDbLine
10
12.825857570008894
20
193.33377259043266
30
0
11
13.756459633956837
21
191.97539854678593
31
0
0
SPLINE
5
138
100
AcDbEntity
8
0
100
AcDbSpline
70
12
71
2
41
1
41
3.0000000000000764
41
1
72
6
73
3
74
0
42
0.000000001
43
0.0000000001
44
0.0000000001
40
0
40
0
40
0
40
1.6453411707466541
40
1.6453411707466541
40
1.6453411707466541
10
169.80678347094269
20
163.83783599642638
30
0
10
167.99916967195111
20
167.18037017714281
30
0
10
170
20
180
30
0
0
LINE
5
139
100
AcDbEntity
8
0
100
AcDbLine
10
72.000001072883606
20
210.00000312924385
30
0
11
72.383085041463502
21
208.0871692480595
31
0
0
LINE
5
140
100
AcDbEntity
8
0
100
AcDbLine
10
72.383085041463502
20
208.0871692480595
30
0
11
77.191543131639108
21
224.05254827158126
31
0
0
SPLINE
5
141
100
AcDbEntity
8
0
100
AcDbSpline
70
12
71
2
41
1
41
3.0000000000000107
41
1
72
6
73
3
74
0
42
0.000000001
43
0.0000000001
44
0.0000000001
40
0
40
0
40
0
40
2.2909239248668793
40
2.2909239248668793
40
2.2909239248668793
10
98.940431926691033
20
217.07620149218741
30
0
10
88.772873059185116
20
223.20044988581526
30
0
10
88.216846368548971
20
235.43303707981011
30
0
0
LINE
5
142
100
AcDbEntity
8
0
100
AcDbLine
10
59.999999999999929
20
165.00000000000003
30
0
11
45.000000670552254
21
175.00000260770321
31
0
0
LINE
5
143
100
AcDbEntity
8
0
100
AcDbLine
10
72.383085041463502
20
208.0871692480595
30
0
11
77.159627374449272
21
220.9575819654178
31
0
0
SPLINE
5
144
100
AcDbEntity
8
0
100
AcDbSpline
70
12
71
2
41
1
41
2.9999999999999858
41
1
72
6
73
3
74
0
42
0.000000001
43
0.0000000001
44
0.0000000001
40
0
40
0
40
0
40
1.9222204152906837
40
1.9222204152906837
40
1.9222204152906837
10
98.981707355172517
20
220.69109062192302
30
0
10
91.692013185024791
20
223.96399223586118
30
0
10
88.216846368548971
20
235.43303707981011
30
0
0
LINE
5
145
100
AcDbEntity
8
0
100
AcDbLine
10
77.421301755036893
20
221.66267225843353
30
0
11
82.000001221895218
21
234.00000348687172
31
0
0
SPLINE
5
146
100
AcDbEntity
8
0
100
AcDbSpline
70
12
71
2
41
1
41
2.9999999999999964
41
1
72
6
73
3
74
0
42
0.000000001
43
0.0000000001
44
0.0000000001
40
0
40
0
40
0
40
2.3742879511866866
40
2.3742879511866866
40
2.3742879511866866
10
30.681808325412963
20
163.77658728150794
30
0
10
30.314736209518379
20
175.37750880695518
30
0
10
22.211230162971731
20
185.157602311408
30
0
0
LINE
5
147
100
AcDbEntity
8
0
100
AcDbLine
10
82.000001221975225
20
231.74062376905215
30
0
11
88.000001311302185
21
243.00000362098217
31
0
0
SPLINE
5
148
100
AcDbEntity
8
0
100
AcDbSpline
70
12
71
2
41
1
41
2.9999999999999751
41
1
72
6
73
3
74
0
42
0.000000001
43
0.0000000001
44
0.0000000001
40
0
40
0
40
0
40
2.5148212066084144
40
2.5148212066084144
40
2.5148212066084144
10
101.32621141711867
20
217.07620149218741
30
0
10
113.40349041513157
20
221.62899371273073
30
0
10
112.88190532051608
20
235.97258381465636
30
0
0
LINE
5
149
100
AcDbEntity
8
0
100
AcDbLine
10
13.756459633956837
20
191.97539854678593
30
0
11
0.1762946477203936
21
200.00020744710082
31
0
0
LINE
5
150
100
AcDbEntity
8
0
100
AcDbLine
10
2.0000000298023224
20
170.0000025331974
30
0
11
3.7977453179709686
21
167.31586930120648
31
0
0
LINE
5
151
100
AcDbEntity
8
0
100
AcDbLine
10
54.878189454820841
20
167.98772033573766
30
0
11
52.772432030920598
21
169.34513062880967
31
0
0
SPLINE
5
152
100
AcDbEntity
8
0
100
AcDbSpline
70
12
71
2
41
1
41
3.0000000000000266
41
1
72
6
73
3
74
0
42
0.000000001
43
0.0000000001
44
0.0000000001
40
0
40
0
40
0
40
2.1553993231847457
40
2.1553993231847457
40
2.1553993231847457
10
101.26248748994811
20
220.69109062192302
30
0
10
111.03678431171424
20
222.85284344790364
30
0
10
112.88190532051608
20
235.97258381465636
30
0
0
LINE
5
153
100
AcDbEntity
8
0
100
AcDbLine
10
77.191543131639108
20
224.05254827158126
30
0
11
77.421301755036893
21
221.66267225843353
31
0
0
LINE
5
154
100
AcDbEntity
8
0
100
AcDbLine
10
34.880157869561366
20
179.77041740792995
30
0
11
35.09422039056777
21
179.52837143872716
31
0
0
LINE
5
155
100
AcDbEntity
8
0
100
AcDbLine
10
88.000001311302185
20
243.00000362098217
30
0
11
88.000001311382221
21
241.77924642238256
31
0
0
LINE
5
156
100
AcDbEntity
8
0
100
AcDbLine
10
26.132865467744345
20
184.75582847704391
30
0
11
12.825857570008894
21
193.33377259043266
31
0
0
SPLINE
5
157
100
AcDbEntity
8
0
100
AcDbSpline
70
4
71
5
72
12
73
6
74
0
42
0.000000001
43
0.0000000001
44
0.0000000001
40
0.35000001639322237
40
0.35000001639322237
40
0.35000001639322237
40
0.35000001639322237
40
0.35000001639322237
40
0.35000001639322237
40
0.37539258083266291
40
0.37539258083266291
40
0.37539258083266291
40
0.37539258083266291
40
0.37539258083266291
40
0.37539258083266291
41
1
41
1
41
1
41
1
41
1
41
1
10
88.000001311382221
20
241.77924642238256
30
0
10
88.406282342415267
20
242.32964452803009
30
0
10
88.81256337344837
20
242.85771871110128
30
0
10
89.21884440448153
20
243.36332902292628
30
0
10
89.625125435514761
20
243.84633983829687
30
0
10
90.031406466548063
20
244.30662200078802
30
0
0
LINE
5
158
100
AcDbEntity
8
0
100
AcDbLine
10
65.000000968575478
20
189.00000281631947
30
0
11
65.579074224345135
21
186.10854550080009
31
0
0
LINE
5
159
100
AcDbEntity
8
0
100
AcDbLine
10
82.000001221895218
20
234.00000348687172
30
0
11
82.000001221975225
21
231.74062376905215
31
0
0
LINE
5
160
100
AcDbEntity
8
0
100
AcDbLine
10
35.679321475365768
20
179.21674539496075
30
0
11
24.940390818752867
21
186.65683064233485
31
0
0
LINE
5
161
100
AcDbEntity
8
0
100
AcDbLine
10
3.7977453179709686
20
167.31586930120648
30
0
11
1.0000000149011612
21
185.00000275671482
31
0
0
LINE
5
162
100
AcDbEntity
8
0
100
AcDbLine
10
24.940390818752867
20
186.65683064233485
30
0
11
26.132865467744345
21
184.75582847704391
31
0
0
LINE
5
163
100
AcDbEntity
8
0
100
AcDbLine
10
152.0000022649765
20
174.00000259280205
30
0
11
151.05688550691909
21
171.53280366598611
31
0
0
LINE
5
164
100
AcDbEntity
8
0
100
AcDbLine
10
165.0000024586916
20
181.00000269711018
30
0
11
164.24826698135294
21
179.32674393988987
31
0
0
SPLINE
5
165
100
AcDbEntity
8
0
100
AcDbSpline
70
4
71
5
72
12
73
6
74
0
42
0.000000001
43
0.0000000001
44
0.0000000001
40
0.70029407178506908
40
0.70029407178506908
40
0.70029407178506908
40
0.70029407178506908
40
0.70029407178506908
40
0.70029407178506908
40
0.72238206065705501
40
0.72238206065705501
40
0.72238206065705501
40
0.72238206065705501
40
0.72238206065705501
40
0.72238206065705501
41
1
41
1
41
1
41
1
41
1
41
1
10
116.02352574290131
20
235.46385243484701
30
0
10
116.3769335648544
20
234.83418894931813
30
0
10
116.73034138680737
20
234.18828900869184
30
0
10
117.08374920876028
20
233.52625045845318
30
0
10
117.43715703071314
20
232.8481711914834
30
0
10
117.79056485266591
20
232.1541484442705
30
0
0
SPLINE
5
166
100
AcDbEntity
8
0
100
AcDbSpline
70
4
71
5
72
12
73
6
74
0
42
0.000000001
43
0.0000000001
44
0.0000000001
40
0
40
0
40
0
40
0
40
0
40
0
40
0.017473334847851862
40
0.017473334847851862
40
0.017473334847851862
40
0.017473334847851862
40
0.017473334847851862
40
0.017473334847851862
41
1
41
1
41
1
41
1
41
1
41
1
10
52.566038184526185
20
169.33647772564552
30
0
10
52.608210686146641
20
169.33957995759638
30
0
10
52.649936114358454
20
169.34199605079704
30
0
10
52.691214509858966
20
169.3437260672286
30
0
10
52.73204625002586
20
169.34477057658609
30
0
10
52.772432030920598
20
169.34513062880967
30
0
0
SPLINE
5
167
100
AcDbEntity
8
0
100
AcDbSpline
70
4
71
5
72
12
73
6
74
0
42
0.000000001
43
0.0000000001
44
0.0000000001
40
0
40
0
40
0
40
0
40
0
40
0
40
0.037181669363059972
40
0.037181669363059972
40
0.037181669363059972
40
0.037181669363059972
40
0.037181669363059972
40
0.037181669363059972
41
1
41
1
41
1
41
1
41
1
41
1
10
198.50253229011395
20
199.56538979084462
30
0
10
198.28932929414705
20
197.29186869105416
30
0
10
198.06877649500024
20
195.03827117776839
30
0
10
197.84087397056581
20
192.80459703983956
30
0
10
197.60561335033105
20
190.59086896775756
30
0
10
197.36297761670684
20
188.3971330922011
30
0
0
LINE
5
168
100
AcDbEntity
8
0
100
AcDbLine
10
140
20
165
30
0
11
136.00000202655792
21
188.0000028014183
31
0
0
LINE
5
169
100
AcDbEntity
8
0
100
AcDbLine
10
198.51477787611057
20
190.036277275754
30
0
11
197.36297761670684
21
188.3971330922011
31
0
0
SPLINE
5
170
100
AcDbEntity
8
0
100
AcDbSpline
70
4
71
5
72
12
73
6
74
0
42
0.000000001
43
0.0000000001
44
0.0000000001
40
0.25344754507312128
40
0.25344754507312128
40
0.25344754507312128
40
0.25344754507312128
40
0.25344754507312128
40
0.25344754507312128
40
0.26388835175070335
40
0.26388835175070335
40
0.26388835175070335
40
0.26388835175070335
40
0.26388835175070335
40
0.26388835175070335
41
1
41
1
41
1
41
1
41
1
41
1
10
45.217901814004847
20
173.62289060840979
30
0
10
45.096111698101922
20
173.69393484268608
30
0
10
44.974321582198996
20
173.76497907696233
30
0
10
44.852531466296064
20
173.83602331123865
30
0
10
44.730741350393146
20
173.90706754551496
30
0
10
44.60895123449022
20
173.97811177979125
30
0
0
SPLINE
5
171
100
AcDbEntity
8
0
100
AcDbSpline
70
12
71
2
41
1
41
3.000000000000032
41
1
72
6
73
3
74
0
42
0.000000001
43
0.0000000001
44
0.0000000001
40
0
40
0
40
0
40
2.4553469185326868
40
2.4553469185326868
40
2.4553469185326868
10
26.064572296020579
20
165.59385842064404
30
0
10
14.367377008983503
20
167.5286120883527
30
0
10
5.1659243409253985
20
177.05409626486136
30
0
0
LINE
5
172
100
AcDbEntity
8
0
100
AcDbLine
10
134.90816092273576
20
184.37479556794381
30
0
11
128.48084048245195
21
210.01170648075615
31
0
0
SPLINE
5
173
100
AcDbEntity
8
0
100
AcDbSpline
70
12
71
2
41
1
41
2.9999999999999645
41
1
72
6
73
3
74
0
42
0.000000001
43
0.0000000001
44
0.0000000001
40
0
40
0
40
0
40
1.9136142682367732
40
1.9136142682367732
40
1.9136142682367732
10
27.919031760258193
20
167.12335742747882
30
0
10
27.385864937280822
20
175.1499053043309
30
0
10
22.211230162971731
20
185.157602311408
30
0
0
SPLINE
5
174
100
AcDbEntity
8
0
100
AcDbSpline
70
4
71
5
72
12
73
6
74
0
42
0.000000001
43
0.0000000001
44
0.0000000001
40
0
40
0
40
0
40
0
40
0
40
0
40
0.087817071575077579
40
0.087817071575077579
40
0.087817071575077579
40
0.087817071575077579
40
0.087817071575077579
40
0.087817071575077579
41
1
41
1
41
1
41
1
41
1
41
1
10
59.999999999999929
20
165.00000000000003
30
0
10
58.975629790332782
20
165.59754928896388
30
0
10
57.951259580665848
20
166.19509857792809
30
0
10
56.926889370999149
20
166.79264786689265
30
0
10
55.902519161332656
20
167.39019715585749
30
0
10
54.878148951666361
20
167.98774644482265
30
0
0
SPLINE
5
175
100
AcDbEntity
8
0
100
AcDbSpline
70
4
71
5
72
13
73
7
74
0
42
0.000000001
43
0.0000000001
44
0.0000000001
40
0.79287200191830254
40
0.79287200191830254
40
0.79287200191830254
40
0.79287200191830254
40
0.79287200191830254
40
0.79287200191830254
40
0.80000000000000004
40
1
40
1
40
1
40
1
40
1
40
1
41
1
41
1
41
1
41
1
41
1
41
1
41
1
10
13.756459633956837
20
191.97539854678593
30
0
10
13.673312829372477
20
192.02390084946046
30
0
10
11.257202305343412
20
193.43329865515355
30
0
10
8.8410917813144785
20
194.842696460848
30
0
10
6.4249812572856229
20
196.25209426654393
30
0
10
4.0088707332568179
20
197.66149207224132
30
0
10
1.6759070138124104
20
199.02238757526536
30
0
0
LINE
5
176
100
AcDbEntity
8
0
100
AcDbLine
10
196.03334533021444
20
177.2999119228547
30
0
11
196.03334706429266
21
177.29992532109759
31
0
0
LINE
5
177
100
AcDbEntity
8
0
100
AcDbLine
10
1.0000000149011612
20
185.00000275671482
30
0
11
1.6383703585411946
21
183.93377934382806
31
0
0
LINE
5
178
100
AcDbEntity
8
0
100
AcDbLine
10
59.999999999999929
20
165.00000000000003
30
0
11
65.000000968575478
21
189.00000281631947
31
0
0
LINE
5
179
100
AcDbEntity
8
0
100
AcDbLine
10
190.16635022282185
20
195.51693565121866
30
0
11
189.39318960631365
21
194.1832641241129
31
0
0
LINE
5
180
100
AcDbEntity
8
0
100
AcDbLine
10
34.833123273772124
20
180.90914179814803
30
0
11
35.679321475365768
21
179.21674539496075
31
0
0
LINE
5
181
100
AcDbEntity
8
0
100
AcDbLine
10
175.26995600693022
20
185.83875226516884
30
0
11
190.16635022282185
21
195.51693565121866
31
0
0
LINE
5
182
100
AcDbEntity
8
0
100
AcDbLine
10
151.05688550691909
20
171.53280366598611
30
0
11
165.0000024586916
21
181.00000269711018
31
0
0
LINE
5
183
100
AcDbEntity
8
0
100
AcDbLine
10
164.24826698135294
20
179.32674393988987
30
0
11
176.32973284654466
21
188.0000028014183
31
0
0
SPLINE
5
184
100
AcDbEntity
8
0
100
AcDbSpline
70
12
71
2
41
1
41
2.9999999999999822
41
1
72
6
73
3
74
0
42
0.000000001
43
0.0000000001
44
0.0000000001
40
0
40
0
40
0
40
2.8272525791005649
40
2.8272525791005649
40
2.8272525791005649
10
101.74650586588893
20
190.34960150765355
30
0
10
114.821564391968
20
195.66816390526651
30
0
10
120
20
210
30
0
0
LINE
5
185
100
AcDbEntity
8
0
100
AcDbLine
10
117.79056485266594
20
232.1541484442705
30
0
11
112.00000166893005
21
243.00000362098217
31
0
0
LINE
5
186
100
AcDbEntity
8
0
100
AcDbLine
10
122.16802330133891
20
222.59384179254212
30
0
11
118.00000175833702
21
234.00000348687172
31
0
0
LINE
5
187
100
AcDbEntity
8
0
100
AcDbLine
10
118.00000175833702
20
234.00000348687172
30
0
11
117.79056485266594
21
232.1541484442705
31
0
0
LINE
5
188
100
AcDbEntity
8
0
100
AcDbLine
10
176.32973284654466
20
188.0000028014183
30
0
11
175.26995600693022
21
185.83875226516884
31
0
0
LINE
5
189
100
AcDbEntity
8
0
100
AcDbLine
10
127.81910034646114
20
207.49501024346384
30
0
11
122.43872518246397
21
224.97965070617286
31
0
0
LINE
5
190
100
AcDbEntity
8
0
100
AcDbLine
10
128.48084048245195
20
210.01170648075615
30
0
11
127.81910034646114
21
207.49501024346384
31
0
0
SPLINE
5
191
100
AcDbEntity
8
0
100
AcDbSpline
70
4
71
5
72
12
73
6
74
0
42
0.000000001
43
0.0000000001
44
0.0000000001
40
0.84429148060446313
40
0.84429148060446313
40
0.84429148060446313
40
0.84429148060446313
40
0.84429148060446313
40
0.84429148060446313
40
1
40
1
40
1
40
1
40
1
40
1
41
1
41
1
41
1
41
1
41
1
41
1
10
189.39318960631365
20
194.1832641241129
30
0
10
191.21505814307363
20
195.25968925745735
30
0
10
193.03692667983364
20
196.33611439080278
30
0
10
194.85879521659371
20
197.41253952414917
30
0
10
196.68066375335377
20
198.48896465749644
30
0
10
198.50253229011395
20
199.56538979084462
30
0
0
LINE
5
192
100
AcDbEntity
8
0
100
AcDbLine
10
136.00000202655792
20
188.0000028014183
30
0
11
134.90816092273576
21
184.37479556794381
31
0
0
SPLINE
5
193
100
AcDbEntity
8
0
100
AcDbSpline
70
4
71
5
72
21
73
15
74
0
42
0.000000001
43
0.0000000001
44
0.0000000001
40
0
40
0
40
0
40
0
40
0
40
0
40
0.10000000000000001
40
0.20000000000000001
40
0.30000000000000004
40
0.40000000000000002
40
0.5
40
0.59999999999999998
40
0.69999999999999996
40
0.79999999999999993
40
0.89999999999999991
40
1
40
1
40
1
40
1
40
1
40
1
41
1
41
1
41
1
41
1
41
1
41
1
41
1
41
1
41
1
41
1
41
1
41
1
41
1
41
1
41
1
10
97.252171224676118
20
75
30
0
10
89.878888284132017
20
84.340593927163368
30
0
10
75.775443145751652
20
102.22015365219485
30
0
10
56.549567986836955
20
126.63469570494341
30
0
10
34.837736392734186
20
154.29794544394488
30
0
10
14.681327370909422
20
180.17246140850648
30
0
10
2.1397300662535006
20
196.55537359410587
30
0
10
-2.1540681444598602
20
202.65768476735013
30
0
10
2.1663561364255708
20
198.02266062734549
30
0
10
14.786582856852267
20
183.04221507361319
30
0
10
35.091227813089475
20
158.48340358310406
30
0
10
56.983669147589794
20
131.79541036536574
30
0
10
76.379278589533016
20
108.06958561673595
30
0
10
90.610927474381029
20
90.630414492173742
30
0
10
98.052070660885335
20
81.505330181480133
30
0
0
SPLINE
5
194
100
AcDbEntity
8
0
100
AcDbSpline
70
12
71
2
41
1
41
3.0000000000000302
41
1
72
6
73
3
74
0
42
0.000000001
43
0.0000000001
44
0.0000000001
40
0
40
0
40
0
40
2.8118904052628158
40
2.8118904052628158
40
2.8118904052628158
10
168.42445832072772
20
158.51909907595706
30
0
10
182.9557038348832
20
158.51909907595706
30
0
10
191.95448935560711
20
170.38157406418961
30
0
0
ARC
5
195
100
AcDbEntity
8
0
100
AcDbCircle
10
91.345862314580899
20
67.087680444024457
30
0
40
4.9999999999999902
210
0
220
0
230
1
100
AcDbArc
50
-4.4523612239835924
51
111.43656368705896
0
SPLINE
5
196
100
AcDbEntity
8
0
100
AcDbSpline
70
12
71
2
41
1
41
3.0000000000000586
41
1
72
6
73
3
74
0
42
0.000000001
43
0.0000000001
44
0.0000000001
40
0
40
0
40
0
40
2.2860527174980856
40
2.2860527174980856
40
2.2860527174980856
10
171.09370107822659
20
161.95122586053196
30
0
10
182.9557038348832
20
163.83783599642638
30
0
10
191.95448935560711
20
170.38157406418961
30
0
0
LINE
5
197
100
AcDbEntity
8
0
100
AcDbLine
10
191.2782470572472
20
147.62857829657594
30
0
11
197.00000293552876
21
173.00000257790089
31
0
0
LINE
5
198
100
AcDbEntity
8
0
100
AcDbLine
10
7.0566627896767686
20
147.96824764061438
30
0
11
2.0000000298023224
21
170.0000025331974
31
0
0
SPLINE
5
199
100
AcDbEntity
8
0
100
AcDbSpline
70
12
71
2
41
1
41
3.0000000000000018
41
1
72
6
73
3
74
0
42
0.000000001
43
0.0000000001
44
0.0000000001
40
0
40
0
40
0
40
4.1787008593127624
40
4.1787008593127624
40
4.1787008593127624
10
146.78096107589164
20
130.77994449281775
30
0
10
167.20817957127286
20
131.89319193363704
30
0
10
185
20
145
30
0
0
SPLINE
5
200
100
AcDbEntity
8
0
100
AcDbSpline
70
12
71
2
41
1
41
3.0000000000000053
41
1
72
6
73
3
74
0
42
0.000000001
43
0.0000000001
44
0.0000000001
40
0
40
0
40
0
40
4.9280654391435652
40
4.9280654391435652
40
4.9280654391435652
10
142.67814656432964
20
125.53449381469048
30
0
10
168.33121500097553
20
125.53449381469048
30
0
10
185
20
145
30
0
0
SPLINE
5
201
100
AcDbEntity
8
0
100
AcDbSpline
70
4
71
5
72
21
73
15
74
0
42
0.000000001
43
0.0000000001
44
0.0000000001
40
0
40
0
40
0
40
0
40
0
40
0
40
0.10000000000000001
40
0.20000000000000001
40
0.30000000000000004
40
0.40000000000000002
40
0.5
40
0.59999999999999998
40
0.69999999999999996
40
0.79999999999999993
40
0.89999999999999991
40
1
40
1
40
1
40
1
40
1
40
1
41
1
41
1
41
1
41
1
41
1
41
1
41
1
41
1
41
1
41
1
41
1
41
1
41
1
41
1
41
1
10
98.052070660885306
20
81.505330181480119
30
0
10
98.110122428316956
20
95.043821589257519
30
0
10
98.229896997517301
20
120.93848248843328
30
0
10
98.420571617004583
20
156.23361672930815
30
0
10
98.697195252049582
20
196.08243732303609
30
0
10
99.082825465508378
20
233.05884595349505
30
0
10
99.511867639747393
20
256.05366030663868
30
0
10
99.987864324579505
20
263.92593919081696
30
0
10
100.51274910971712
20
256.05293563821351
30
0
10
101.08458752791071
20
233.05767923889437
30
0
10
101.69983673246163
20
196.08120679785929
30
0
10
102.2239155853601
20
156.23267217834598
30
0
10
102.6337672534912
20
120.93793867591977
30
0
10
102.91434328881024
20
95.043626703257061
30
0
10
103.05646676022454
20
81.505330181480119
30
0
0
SPLINE
5
202
100
AcDbEntity
8
0
100
AcDbSpline
70
12
71
2
41
1
41
2.9999999999999822
41
1
72
6
73
3
74
0
42
0.000000001
43
0.0000000001
44
0.0000000001
40
0
40
0
40
0
40
3.5755514916828166
40
3.5755514916828166
40
3.5755514916828166
10
138.67555968857715
20
125.53449381469048
30
0
10
136.99810682107892
20
142.64148033471889
30
0
10
145
20
160
30
0
0
SPLINE
5
203
100
AcDbEntity
8
0
100
AcDbSpline
70
12
71
2
41
1
41
3
41
1
72
6
73
3
74
0
42
0.000000001
43
0.0000000001
44
0.0000000001
40
0
40
0
40
0
40
4.3088790070880396
40
4.3088790070880396
40
4.3088790070880396
10
73.564537956788556
20
105.03849002506733
30
0
10
51.103361717495012
20
103.86881124421055
30
0
10
32.550186153393305
20
114.46149783636332
30
0
0
SPLINE
5
204
100
AcDbEntity
8
0
100
AcDbSpline
70
12
71
2
41
1
41
3.0000000000000089
41
1
72
6
73
3
74
0
42
0.000000001
43
0.0000000001
44
0.0000000001
40
0
40
0
40
0
40
4.0560965136737508
40
4.0560965136737508
40
4.0560965136737508
10
53.33644204050465
20
130.75360460610005
30
0
10
30
20
130
30
0
10
16.622605303284416
20
142.96348462076867
30
0
0
LINE
5
205
100
AcDbEntity
8
0
100
AcDbLine
10
97.252171224676118
20
75
30
0
11
96.000001430511475
21
69.000001028180122
31
0
0
ARC
5
206
100
AcDbEntity
8
0
100
AcDbCircle
10
108.65620768812053
20
67.061134301759978
30
0
40
5.0000000000000044
210
0
220
-0
230
1
100
AcDbArc
50
68.500235651374595
51
184.45131544875852
0
LINE
5
207
100
AcDbEntity
8
0
100
AcDbLine
10
194.43894825139921
20
150.58037603778601
30
0
11
191.2782470572472
21
147.62857829657594
31
0
0
SPLINE
5
208
100
AcDbEntity
8
0
100
AcDbSpline
70
12
71
2
41
1
41
3
41
1
72
6
73
3
74
0
42
0.000000001
43
0.0000000001
44
0.0000000001
40
0
40
0
40
0
40
2.6402119414798744
40
2.6402119414798744
40
2.6402119414798744
10
115.55411267130796
20
96.969687407809317
30
0
10
110
20
110
30
0
10
114.65414112271699
20
122.22800477532235
30
0
0
LINE
5
209
100
AcDbEntity
8
0
100
AcDbLine
10
190
20
125
30
0
11
184.50005276001545
21
119.86356649225458
31
0
0
SPLINE
5
210
100
AcDbEntity
8
0
100
AcDbSpline
70
12
71
2
41
1
41
3.000000000000016
41
1
72
6
73
3
74
0
42
0.000000001
43
0.0000000001
44
0.0000000001
40
0
40
0
40
0
40
3.4395741968599136
40
3.4395741968599136
40
3.4395741968599136
10
102.57417177173487
20
125.45551375165935
30
0
10
118.02089885157721
20
133.64872068922153
30
0
10
125
20
150
30
0
0
SPLINE
5
211
100
AcDbEntity
8
0
100
AcDbSpline
70
12
71
2
41
1
41
3.0000000000000053
41
1
72
6
73
3
74
0
42
0.000000001
43
0.0000000001
44
0.0000000001
40
0
40
0
40
0
40
3.9349748947573087
40
3.9349748947573087
40
3.9349748947573087
10
98.402996295210343
20
150.30847212127921
30
0
10
80.196285848110563
20
161.66774575691707
30
0
10
75
20
180
30
0
0
SPLINE
5
212
100
AcDbEntity
8
0
100
AcDbSpline
70
12
71
2
41
1
41
3.0000000000000036
41
1
72
6
73
3
74
0
42
0.000000001
43
0.0000000001
44
0.0000000001
40
0
40
0
40
0
40
3.9592176234505421
40
3.9592176234505421
40
3.9592176234505421
10
102.27827462981506
20
150.30847212127921
30
0
10
122.48727534274069
20
162.53936833284769
30
0
10
125
20
180
30
0
0
SPLINE
5
213
100
AcDbEntity
8
0
100
AcDbSpline
70
12
71
2
41
1
41
2.9999999999999609
41
1
72
6
73
3
74
0
42
0.000000001
43
0.0000000001
44
0.0000000001
40
0
40
0
40
0
40
2.2359754573005404
40
2.2359754573005404
40
2.2359754573005404
10
165.46994938859933
20
158.51909907595706
30
0
10
165
20
170
30
0
10
170
20
180
30
0
0
LINE
5
214
100
AcDbEntity
8
0
100
AcDbLine
10
13.194234675661393
20
122.12805852786602
30
0
11
5
21
150
31
0
0
LINE
5
215
100
AcDbEntity
8
0
100
AcDbLine
10
10
20
125
30
0
11
13.194234675661393
21
122.12805852786602
31
0
0
SPLINE
5
216
100
AcDbEntity
8
0
100
AcDbSpline
70
4
71
5
72
17
73
11
74
0
42
0.000000001
43
0.0000000001
44
0.0000000001
40
0.40905969867987457
40
0.40905969867987457
40
0.40905969867987457
40
0.40905969867987457
40
0.40905969867987457
40
0.40905969867987457
40
0.5
40
0.59999999999999998
40
0.69999999999999996
40
0.79999999999999993
40
0.89999999999999991
40
0.9567135846632
40
0.9567135846632
40
0.9567135846632
40
0.9567135846632
40
0.9567135846632
40
0.9567135846632
41
1
41
1
41
1
41
1
41
1
41
1
41
1
41
1
41
1
41
1
41
1
10
21.210829615470303
20
100.09720349541186
30
0
10
22.648282924146518
20
96.960710245710032
30
0
10
25.798945045235584
20
90.725305039357679
30
0
10
31.037432401013714
20
82.380277789372215
30
0
10
39.029674269199262
20
73.684219625374595
30
0
10
50.766270606897407
20
67.2531144901765
30
0
10
63.263940653125289
20
65.441018357235407
30
0
10
74.06391204662502
20
66.768793529263419
30
0
10
82.349388011486596
20
69.079436833584865
30
0
10
87.595450336623145
20
70.986740243787168
30
0
10
89.518507966923991
20
71.741794332628743
30
0
0
SPLINE
5
217
100
AcDbEntity
8
0
100
AcDbSpline
70
12
71
2
41
1
41
3
41
1
72
6
73
3
74
0
42
0.000000001
43
0.0000000001
44
0.0000000001
40
0
40
0
40
0
40
2.8106303732475402
40
2.8106303732475402
40
2.8106303732475402
10
122.82651340781683
20
100.19197400943489
30
0
10
138.63537087867022
20
98.743369391969509
30
0
10
149.77135291090815
20
105.03849002506733
30
0
0
SPLINE
5
218
100
AcDbEntity
8
0
100
AcDbSpline
70
12
71
2
41
1
41
2.9999999999999982
41
1
72
6
73
3
74
0
42
0.000000001
43
0.0000000001
44
0.0000000001
40
0
40
0
40
0
40
3.9892333826642616
40
3.9892333826642616
40
3.9892333826642616
10
102.64267659138268
20
119.46405838136413
30
0
10
121.54159824023168
20
131.06774954324504
30
0
10
125
20
150
30
0
0
SPLINE
5
219
100
AcDbEntity
8
0
100
AcDbSpline
70
12
71
2
41
1
41
2.9999999999999982
41
1
72
6
73
3
74
0
42
0.000000001
43
0.0000000001
44
0.0000000001
40
0
40
0
40
0
40
3.3157187968119137
40
3.3157187968119137
40
3.3157187968119137
10
76.276707586566715
20
108.1833304391842
30
0
10
77.845507370625654
20
120.02452587440409
30
0
10
73.626578872095138
20
141.00746591987811
30
0
0
SPLINE
5
220
100
AcDbEntity
8
0
100
AcDbSpline
70
12
71
2
41
1
41
2.9999999999999982
41
1
72
6
73
3
74
0
42
0.000000001
43
0.0000000001
44
0.0000000001
40
0
40
0
40
0
40
4.7522427443184316
40
4.7522427443184316
40
4.7522427443184316
10
76.276707586566715
20
101.59568385641292
30
0
10
50
20
100
30
0
10
32.550186153393305
20
114.46149783636332
30
0
0
LINE
5
221
100
AcDbEntity
8
0
100
AcDbLine
10
103.05646676022454
20
75
30
0
11
104.00000154972076
21
69.000001028180122
31
0
0
ENDSEC
0
SECTION
2
OBJECTS
0
DICTIONARY
5
C
100
AcDbDictionary
3
ACAD_GROUP
350
D
3
ACAD_MLINESTYLE
350
17
0
DICTIONARY
5
D
100
AcDbDictionary
0
DICTIONARY
5
1A
330
C
100
AcDbDictionary
0
DICTIONARY
5
17
100
AcDbDictionary
0
ENDSEC
0
EOF
